<?xml version="1.0" encoding="utf-8"?>
<svg xmlns="http://www.w3.org/2000/svg" viewBox="0 0 568 442">
  <defs>
    <mask id="h">
      <rect width="568" height="442" fill="white"/>
      <g fill="black">
  <path d="M88.75 380.69 c-3.45 -1.08 -6.85 -3.60 -8.63 -6.46 -2.86 -4.54 -2.76 -0.84 -2.61 -77.95 l0.15 -70.70 1.28 -4.68 c3.94 -14.20 10.30 -21.79 28.55 -34.07 l6.16 -4.14 -11.59 -0.30 c-12.82 -0.30 -14 -0.54 -18.24 -3.65 -4.49 -3.30 -6.66 -7.99 -6.66 -14.30 0 -3.75 0.25 -4.88 1.28 -7.15 2.81 -5.92 8.14 -9.66 15.33 -10.85 5.28 -0.84 7.10 -1.23 11.69 -2.47 5.57 -1.48 11 -1.23 14.59 0.59 4.88 2.51 8.28 7.49 8.92 13.02 l0.35 2.71 2.17 -0.15 2.22 -0.15 2.37 -7.15 c6.56 -19.77 17.95 -42.25 25.49 -50.34 4.68 -4.98 10.65 -8.78 17.11 -10.75 5.82 -1.82 22.24 -3.30 56.01 -5.08 19.13 -1.04 90.87 -0.84 109.46 0.25 30.42 1.77 43.64 3.20 49.70 5.28 6.80 2.32 12.97 6.56 17.55 12.18 7.45 8.97 18.24 30.72 24.06 48.42 l2.12 6.51 2.22 -0.15 2.22 -0.15 0.39 -2.66 c0.74 -5.42 4.83 -10.40 10.01 -12.38 3.70 -1.38 8.63 -1.28 14.50 0.20 2.56 0.69 6.80 1.58 9.37 2.02 10.01 1.68 15.48 6.06 17.55 14.05 1.82 7.20 -0.54 14.35 -6.21 18.49 -4.29 3.16 -5.42 3.35 -18.19 3.70 l-11.49 0.25 7.10 4.78 c17.36 11.64 24.65 21.05 27.86 35.99 0.84 3.85 0.89 8.58 0.89 75.09 l0 71 -1.38 2.81 c-1.48 3.06 -4.09 5.67 -7.35 7.40 l-2.12 1.13 -25.64 0 -25.64 0 -2.47 -1.33 c-3.11 -1.58 -6.36 -5.08 -7.74 -8.18 -0.84 -1.92 -1.04 -3.70 -1.28 -10.40 l-0.25 -8.04 -3.50 0.30 c-21.40 1.82 -87.32 3.75 -128.24 3.75 -43.14 0 -108.37 -1.82 -133.22 -3.75 l-4.09 -0.30 0 7.64 c0 6.56 -0.15 8.09 -0.99 10.40 -1.28 3.40 -4.34 6.85 -7.59 8.58 l-2.51 1.33 -24.90 0.10 c-13.71 0.05 -25.44 -0.10 -26.13 -0.30z m50.14 -7.40 c1.28 -0.59 2.56 -1.73 3.45 -3.06 l1.38 -2.12 -0.15 -7.64 c-0.05 -4.19 -0.20 -7.69 -0.25 -7.79 -0.10 -0.05 -3.90 -0.44 -8.48 -0.89 -28.20 -2.61 -38.95 -4.98 -47.43 -10.40 l-2.61 -1.68 0 14 c0 13.61 0.05 14 1.13 16.07 0.79 1.48 1.82 2.51 3.30 3.30 l2.12 1.13 22.73 0 c21.25 0 22.88 -0.10 24.80 -0.94z m342.18 0.39 c0.74 -0.25 2.02 -1.08 2.81 -1.82 2.61 -2.47 2.76 -3.30 2.76 -18.10 0 -7.45 -0.15 -13.56 -0.30 -13.56 -0.15 0 -0.89 0.39 -1.58 0.94 -3.85 2.71 -11.24 5.52 -18.24 6.95 -5.62 1.13 -18.24 2.71 -27.96 3.45 -3.80 0.30 -7.84 0.64 -8.97 0.79 l-2.12 0.25 0 7 c0.05 9.27 0.84 11.54 4.93 13.71 1.63 0.84 3.30 0.89 24.50 0.94 14.94 0 23.22 -0.20 24.16 -0.54z m-133.96 -24.60 c51.97 -1.38 98.71 -4.49 116.85 -7.79 l2.22 -0.39 -3.20 -0.35 c-4.09 -0.44 -337.69 -0.44 -348.84 0 -9.37 0.35 -9.22 0.49 2.66 2.12 21.89 2.91 64.74 5.37 114.44 6.56 15.63 0.39 99.65 0.30 115.87 -0.15z m139.44 -69.37 c-0.15 -49.60 -0.25 -53.84 -1.04 -56.55 -2.32 -7.84 -5.03 -12.72 -9.91 -17.95 -4.59 -4.83 -7.40 -7 -20.76 -15.93 -12.43 -8.33 -16.81 -12.08 -19.57 -16.76 -1.13 -1.87 -3.30 -7.40 -5.37 -13.71 -6.41 -19.23 -13.61 -34.91 -21.15 -46.15 -5.23 -7.74 -12.38 -12.97 -20.31 -14.79 -13.41 -3.11 -79.83 -6.21 -115.77 -5.42 -39.35 0.89 -82.24 3.45 -90.08 5.42 -7.99 2.02 -15.04 7.59 -20.95 16.47 -6.75 10.21 -14.94 28.55 -20.12 44.92 -4.93 15.53 -7.25 18.44 -24.41 29.78 -5.72 3.80 -12.03 8.14 -14.05 9.66 -9.91 7.54 -15.33 15.58 -17.45 25.79 -0.69 3.30 -0.79 10.35 -0.79 56.31 l0 52.51 200.92 0 200.97 0 -0.15 -53.60z m-360.77 -105.81 c2.07 -1.82 4.88 -5.62 4.88 -6.61 0 -0.49 -0.99 -0.64 -4.19 -0.64 l-4.19 0 0 -3.45 c0 -7 -1.63 -10.55 -5.67 -12.38 -2.76 -1.28 -5.13 -1.18 -11.93 0.49 -3.20 0.79 -7.49 1.68 -9.52 1.97 -4.54 0.69 -7.49 2.37 -9.37 5.28 -3.55 5.57 -1.63 12.87 4.09 15.73 l2.51 1.23 15.78 0 15.83 -0.05 1.77 -1.58z m353.96 1.13 c4.29 -1.18 7.49 -5.62 7.49 -10.35 0 -6.61 -4.49 -10.60 -13.21 -11.83 -2.22 -0.30 -5.97 -1.08 -8.38 -1.73 -5.08 -1.43 -8.33 -1.53 -10.90 -0.49 -4.09 1.73 -5.23 3.80 -5.57 10.35 l-0.25 4.93 -4.29 0.15 c-3.11 0.10 -4.34 0.30 -4.34 0.74 0 1.13 2.71 4.98 4.83 6.90 l2.07 1.82 15.43 0 c8.43 0 16.17 -0.20 17.11 -0.49z"/>
  <path d="M116.16 324.68 c-2.71 -0.94 -4.29 -2.22 -5.57 -4.49 -0.94 -1.63 -1.13 -2.66 -1.13 -6.61 0 -8.58 2.27 -13.81 7.15 -16.42 1.77 -0.99 2.86 -1.08 11.59 -1.23 8.97 -0.15 9.71 -0.05 11.24 0.89 1.87 1.13 3.16 3.75 2.71 5.47 -0.20 0.64 -2.02 5.03 -4.14 9.76 -4.19 9.32 -6.11 11.98 -9.32 12.87 -2.56 0.69 -10.30 0.54 -12.52 -0.25z m10.85 -7.10 c1.08 -0.99 7.40 -14.25 6.95 -14.64 -0.10 -0.15 -3.01 -0.30 -6.41 -0.35 -5.57 -0.10 -6.31 0 -7.59 0.94 -2.17 1.58 -3.25 4.34 -3.50 8.88 -0.20 3.85 -0.20 3.99 1.13 5.03 1.87 1.48 7.94 1.58 9.42 0.15z"/>
  <path d="M205.26 324.78 c-1.13 -0.64 -21.84 -18.59 -23.67 -20.51 -2.17 -2.27 -0.84 -6.11 2.17 -6.11 1.18 0 3.30 1.58 11.54 8.83 5.52 4.88 10.85 9.47 11.83 10.21 l1.77 1.33 76.97 0 76.97 0 1.87 -1.58 c1.04 -0.89 5.72 -5.08 10.40 -9.27 12.08 -10.80 12.08 -10.80 14.59 -8.83 1.08 0.84 1.28 1.38 1.18 2.86 -0.15 1.63 -1.04 2.56 -11.98 12.28 -6.51 5.82 -12.33 10.75 -12.97 11 -1.87 0.74 -159.36 0.54 -160.69 -0.20z"/>
  <path d="M441.43 324.18 c-1.53 -0.79 -2.96 -1.97 -3.70 -3.11 -1.82 -2.81 -8.28 -18.54 -8.28 -20.12 0 -1.92 1.23 -3.60 3.25 -4.44 2.27 -0.94 17.90 -0.94 20.56 0 3.11 1.13 5.13 3.06 6.80 6.51 1.48 3.01 1.63 3.75 1.82 9.02 0.20 5.13 0.10 6.02 -0.84 7.84 -2.07 4.04 -5.42 5.52 -12.67 5.52 -3.75 0 -4.83 -0.20 -6.95 -1.23z m12.43 -6.75 c1.33 -1.04 1.33 -1.13 1.08 -5.13 -0.25 -4.49 -1.33 -7.25 -3.30 -8.63 -1.28 -0.94 -3.30 -1.08 -10.21 -0.99 l-4.04 0.05 2.66 6.46 c3.80 9.17 3.94 9.32 8.92 9.32 2.86 0 3.75 -0.20 4.88 -1.08z"/>
  <path d="M256.14 307.67 c-15.58 -0.44 -34.42 -1.33 -41.37 -1.97 -3.70 -0.30 -4.59 -0.54 -5.32 -1.48 -1.18 -1.48 -1.13 -2.61 0.30 -4.24 l1.13 -1.38 11.54 0.59 c25.54 1.38 32.94 1.58 61.83 1.58 29.39 0 42.06 -0.35 64.10 -1.53 6.02 -0.35 11.49 -0.44 12.23 -0.25 2.56 0.64 3.01 4.44 0.69 5.92 -3.01 1.92 -71.20 3.75 -105.12 2.76z"/>
  <path d="M263.54 290.56 c-17.36 -0.35 -42.95 -1.68 -58.43 -3.11 -6.66 -0.64 -8.04 -1.33 -8.28 -4.09 -0.15 -1.43 0.10 -1.92 1.13 -2.61 1.18 -0.79 1.82 -0.79 10.50 0 24.60 2.12 45.56 2.91 76.52 2.91 32.34 0 52.81 -0.79 78.05 -2.96 l9.76 -0.84 1.04 1.04 c1.38 1.43 1.38 3.94 0 5.08 -1.23 1.04 -2.96 1.28 -15.63 2.22 -30.67 2.22 -61.78 3.01 -94.67 2.37z"/>
  <path d="M255.65 270.39 c-1.63 -0.10 -7.49 -0.39 -13.07 -0.69 -15.53 -0.84 -39.54 -2.96 -40.87 -3.60 -0.69 -0.35 -3.01 -2.81 -5.18 -5.52 -2.17 -2.71 -5.67 -6.71 -7.74 -8.88 l-3.80 -3.94 -2.76 2.61 c-5.32 5.03 -12.72 7.40 -27.07 8.53 -9.66 0.74 -27.81 0.35 -33.38 -0.74 -12.23 -2.47 -18.74 -6.21 -22.83 -13.12 -2.32 -3.94 -2.81 -7.15 -2.81 -17.65 0 -8.78 0.10 -9.71 0.99 -11.19 1.58 -2.56 3.55 -3.20 9.71 -3.20 12.67 0 34.17 4.88 51.43 11.69 19.57 7.74 33.33 17.45 43.19 30.72 1.82 2.42 3.60 4.44 3.94 4.44 0.30 0 3.65 0.35 7.40 0.69 20.41 2.17 44.72 3.25 71.20 3.25 28.01 0 50.14 -0.99 74.11 -3.25 l8.83 -0.84 3.01 -3.99 c3.80 -5.08 11.83 -13.12 16.62 -16.62 18.05 -13.36 52.76 -25.24 75.68 -25.93 7.10 -0.20 8.04 -0.15 9.57 0.69 3.11 1.77 3.50 3.16 3.50 13.31 0 4.93 -0.25 10.16 -0.54 11.59 -1.87 8.92 -8.48 15.14 -19.18 18.10 -9.07 2.51 -28.35 3.30 -43.09 1.77 -12.08 -1.28 -17.90 -3.30 -23.03 -7.99 l-2.76 -2.56 -4.24 4.29 c-2.37 2.37 -5.87 6.36 -7.84 8.92 -2.66 3.45 -3.99 4.78 -5.08 5.03 -1.77 0.44 -21.60 2.22 -36.49 3.20 -10.01 0.69 -69.08 1.38 -77.41 0.89z m-100.58 -18.44 c12.23 -1.04 18.19 -2.81 21.69 -6.41 2.32 -2.37 2.27 -2.42 -4.09 -6.26 -16.17 -9.66 -47.58 -19.13 -64.59 -19.52 l-4.29 -0.10 -0.15 9.07 c-0.10 8.63 -0.05 9.17 1.04 11.59 2.96 6.36 9.91 9.96 22.29 11.59 4.83 0.59 21.05 0.64 28.10 0.05z m288.49 -0.05 c13.12 -1.43 20.91 -5.47 23.37 -12.13 0.84 -2.27 0.99 -3.85 0.99 -11.24 l0 -8.63 -1.33 -0.30 c-1.58 -0.39 -12.87 0.94 -19.38 2.27 -15.33 3.25 -30.57 8.38 -42.65 14.45 -5.32 2.66 -11.59 6.71 -11.59 7.49 0 0.94 3.30 3.70 5.72 4.73 3.25 1.48 7.59 2.42 14.10 3.11 7.49 0.84 24.46 0.99 30.77 0.25z"/>
  <path d="M233.22 183.61 c-2.86 -0.10 -14.25 -0.39 -25.39 -0.69 -19.18 -0.49 -46.10 -1.58 -58.38 -2.27 -5.03 -0.30 -5.82 -0.49 -6.80 -1.48 -1.23 -1.23 -1.43 -2.22 -0.64 -3.65 1.04 -1.97 1.82 -2.02 17.11 -1.23 73.37 3.65 181.59 3.65 253.04 0 7.74 -0.39 14.45 -0.74 14.94 -0.74 2.42 0 3.80 3.99 1.97 5.82 -1.04 1.04 -2.32 1.13 -22.04 2.07 -32.79 1.58 -57.69 2.07 -111.92 2.17 -31.16 0.10 -59.02 0.10 -61.88 0z"/>
  <path d="M89.24 373.10 c-1.48 -0.79 -2.51 -1.82 -3.30 -3.30 -1.08 -2.07 -1.13 -2.47 -1.13 -16.07 l0 -14 2.61 1.68 c8.48 5.42 19.23 7.79 47.43 10.40 4.59 0.44 8.38 0.84 8.48 0.89 0.05 0.10 0.20 3.60 0.25 7.79 l0.15 7.64 -1.38 2.12 c-2.66 3.99 -2.37 3.99 -28.25 3.99 l-22.73 0 -2.12 -1.13z"/>
  <path d="M432.41 373.29 c-4.09 -2.17 -4.88 -4.44 -4.93 -13.71 l0 -7 2.12 -0.25 c1.13 -0.15 5.18 -0.49 8.97 -0.79 9.71 -0.74 22.34 -2.32 27.96 -3.45 7 -1.43 14.40 -4.24 18.24 -6.95 0.69 -0.54 1.43 -0.94 1.58 -0.94 0.15 0 0.30 6.11 0.30 13.56 0 14.79 -0.15 15.63 -2.76 18.10 -0.79 0.74 -2.07 1.58 -2.81 1.82 -0.94 0.35 -9.22 0.54 -24.16 0.54 -21.20 -0.05 -22.88 -0.10 -24.50 -0.94z"/>
  <path d="M231.24 349.23 c-49.70 -1.18 -92.55 -3.65 -114.44 -6.56 -11.88 -1.63 -12.03 -1.77 -2.66 -2.12 11.14 -0.44 344.74 -0.44 348.84 0 l3.20 0.35 -2.22 0.39 c-18.14 3.30 -64.89 6.41 -116.85 7.79 -16.22 0.44 -100.24 0.54 -115.87 0.15z"/>
  <path d="M84.81 280.80 c0 -45.95 0.10 -53 0.79 -56.31 2.12 -10.21 7.54 -18.24 17.45 -25.79 2.02 -1.53 8.33 -5.87 14.05 -9.66 17.16 -11.34 19.48 -14.25 24.41 -29.78 5.18 -16.37 13.36 -34.71 20.12 -44.92 5.92 -8.88 12.97 -14.45 20.95 -16.47 7.84 -1.97 50.74 -4.54 90.08 -5.42 35.94 -0.79 102.36 2.32 115.77 5.42 7.94 1.82 15.09 7.05 20.31 14.79 7.54 11.24 14.74 26.92 21.15 46.15 2.07 6.31 4.24 11.83 5.37 13.71 2.76 4.68 7.15 8.43 19.57 16.76 13.36 8.92 16.17 11.09 20.76 15.93 4.88 5.23 7.59 10.11 9.91 17.95 0.79 2.71 0.89 6.95 1.04 56.55 l0.15 53.60 -200.97 0 -200.92 0 0 -52.51z m43.88 44.13 c3.20 -0.89 5.13 -3.55 9.32 -12.87 2.12 -4.73 3.94 -9.12 4.14 -9.76 0.44 -1.73 -0.84 -4.34 -2.71 -5.47 -1.53 -0.94 -2.27 -1.04 -11.24 -0.89 -8.73 0.15 -9.81 0.25 -11.59 1.23 -4.88 2.61 -7.15 7.84 -7.15 16.42 0 3.94 0.20 4.98 1.13 6.61 2.12 3.75 5.37 5.18 11.93 5.23 2.47 0 5.23 -0.25 6.16 -0.49z m237.26 0.05 c0.64 -0.25 6.46 -5.18 12.97 -11 10.95 -9.71 11.83 -10.65 11.98 -12.28 0.10 -1.48 -0.10 -2.02 -1.18 -2.86 -2.51 -1.97 -2.51 -1.97 -14.59 8.83 -4.68 4.19 -9.37 8.38 -10.40 9.27 l-1.87 1.58 -76.97 0 -76.97 0 -1.77 -1.33 c-0.99 -0.74 -6.31 -5.32 -11.83 -10.21 -8.23 -7.25 -10.35 -8.83 -11.54 -8.83 -3.01 0 -4.34 3.85 -2.17 6.11 1.82 1.92 22.53 19.87 23.67 20.51 1.33 0.74 158.81 0.94 160.69 0.20z m88.90 -0.10 c2.71 -0.74 4.98 -2.56 6.21 -4.98 0.94 -1.82 1.04 -2.71 0.84 -7.84 -0.20 -5.28 -0.35 -6.02 -1.82 -9.02 -1.68 -3.45 -3.70 -5.37 -6.80 -6.51 -2.66 -0.94 -18.29 -0.94 -20.56 0 -2.02 0.84 -3.25 2.51 -3.25 4.44 0 1.58 6.46 17.31 8.28 20.12 0.74 1.13 2.17 2.32 3.70 3.11 2.12 1.04 3.20 1.23 6.95 1.23 2.47 0 5.37 -0.25 6.46 -0.54z m-125.98 -17.70 c21.35 -0.79 31.21 -1.48 32.39 -2.27 2.32 -1.48 1.87 -5.28 -0.69 -5.92 -0.74 -0.20 -6.21 -0.10 -12.23 0.25 -22.04 1.18 -34.71 1.53 -64.10 1.53 -28.89 0 -36.29 -0.20 -61.83 -1.58 l-11.54 -0.59 -1.13 1.38 c-1.43 1.63 -1.48 2.76 -0.30 4.24 0.74 0.94 1.63 1.18 5.32 1.48 24.26 2.17 77.06 2.86 114.09 1.48z m-16.27 -16.76 c18.14 -0.49 29.73 -1.08 45.61 -2.22 12.67 -0.94 14.40 -1.18 15.63 -2.22 1.38 -1.13 1.38 -3.65 0 -5.08 l-1.04 -1.04 -9.76 0.84 c-25.24 2.17 -45.71 2.96 -78.05 2.96 -30.96 0 -51.92 -0.79 -76.52 -2.91 -8.68 -0.79 -9.32 -0.79 -10.50 0 -1.04 0.69 -1.28 1.18 -1.13 2.61 0.25 2.76 1.63 3.45 8.28 4.09 30.96 2.86 71.54 3.94 107.49 2.96z m20.46 -20.91 c14.89 -0.99 34.71 -2.76 36.49 -3.20 1.08 -0.25 2.42 -1.58 5.08 -5.03 1.97 -2.56 5.47 -6.56 7.84 -8.92 l4.24 -4.29 2.76 2.56 c5.13 4.68 10.95 6.71 23.03 7.99 14.74 1.53 34.02 0.74 43.09 -1.77 10.70 -2.96 17.31 -9.17 19.18 -18.10 0.30 -1.43 0.54 -6.66 0.54 -11.59 0 -10.16 -0.39 -11.54 -3.50 -13.31 -1.53 -0.84 -2.47 -0.89 -9.57 -0.69 -22.93 0.69 -57.64 12.57 -75.68 25.93 -4.78 3.50 -12.82 11.54 -16.62 16.62 l-3.01 3.99 -8.83 0.84 c-23.96 2.27 -46.10 3.25 -74.11 3.25 -26.48 0 -50.78 -1.08 -71.20 -3.25 -3.75 -0.35 -7.10 -0.69 -7.40 -0.69 -0.35 0 -2.12 -2.02 -3.94 -4.44 -9.86 -13.26 -23.62 -22.98 -43.19 -30.72 -17.26 -6.80 -38.75 -11.69 -51.43 -11.69 -6.16 0 -8.14 0.64 -9.71 3.20 -0.89 1.48 -0.99 2.42 -0.99 11.19 0 10.50 0.49 13.71 2.81 17.65 4.09 6.90 10.60 10.65 22.83 13.12 5.57 1.08 23.72 1.48 33.38 0.74 14.35 -1.13 21.74 -3.50 27.07 -8.53 l2.76 -2.61 3.80 3.94 c2.07 2.17 5.57 6.16 7.74 8.88 2.17 2.71 4.49 5.18 5.18 5.52 1.33 0.64 25.34 2.76 40.87 3.60 5.57 0.30 11.44 0.59 13.07 0.69 8.33 0.49 67.40 -0.20 77.41 -0.89z m41.17 -86.78 c22.04 -0.79 37.92 -1.43 48.52 -2.07 6.02 -0.39 7.20 -0.99 7.20 -3.65 0 -1.63 -1.48 -3.45 -2.86 -3.45 -0.49 0 -7.20 0.35 -14.94 0.74 -35.30 1.82 -77.16 2.71 -127.65 2.71 -50.69 0 -86.97 -0.79 -125.38 -2.71 -15.28 -0.79 -16.07 -0.74 -17.11 1.23 -0.79 1.43 -0.59 2.42 0.64 3.65 0.99 0.99 1.77 1.18 6.80 1.48 12.28 0.69 39.20 1.77 58.38 2.27 11.14 0.30 22.53 0.59 25.39 0.69 16.12 0.49 120.65 -0.20 141.01 -0.89z"/>
  <path d="M117.59 317.43 c-1.33 -1.04 -1.33 -1.18 -1.13 -5.03 0.25 -4.54 1.33 -7.30 3.50 -8.88 1.28 -0.94 2.02 -1.04 7.59 -0.94 3.40 0.05 6.31 0.20 6.41 0.35 0.44 0.39 -5.87 13.66 -6.95 14.64 -1.48 1.43 -7.54 1.33 -9.42 -0.15z"/>
  <path d="M444.69 317.92 c-1.38 -1.18 -1.92 -2.27 -4.63 -8.73 l-2.66 -6.46 4.04 -0.05 c6.90 -0.10 8.92 0.05 10.21 0.99 1.97 1.38 3.06 4.14 3.30 8.63 0.25 3.99 0.25 4.09 -1.08 5.13 -1.13 0.89 -2.02 1.08 -4.88 1.08 -2.12 0 -3.85 -0.25 -4.29 -0.59z"/>
  <path d="M126.96 251.90 c-12.38 -1.63 -19.33 -5.23 -22.29 -11.59 -1.08 -2.42 -1.13 -2.96 -1.04 -11.59 l0.15 -9.07 4.29 0.10 c17.01 0.39 48.42 9.86 64.59 19.52 6.36 3.85 6.41 3.90 4.09 6.26 -3.50 3.60 -9.47 5.37 -21.69 6.41 -7.05 0.59 -23.27 0.54 -28.10 -0.05z"/>
  <path d="M412.79 251.66 c-6.51 -0.69 -10.85 -1.63 -14.10 -3.11 -2.42 -1.04 -5.72 -3.80 -5.72 -4.73 0 -0.79 6.26 -4.83 11.59 -7.49 12.08 -6.06 27.32 -11.19 42.65 -14.45 6.51 -1.33 17.80 -2.66 19.38 -2.27 l1.33 0.30 0 8.63 c0 7.40 -0.15 8.97 -0.99 11.24 -2.47 6.66 -10.26 10.70 -23.37 12.13 -6.31 0.74 -23.27 0.59 -30.77 -0.25z"/>
  <path d="M89.88 174.30 c-5.72 -2.86 -7.64 -10.16 -4.09 -15.73 1.87 -2.91 4.83 -4.59 9.37 -5.28 2.02 -0.30 6.31 -1.18 9.52 -1.97 6.80 -1.68 9.17 -1.77 11.93 -0.49 4.04 1.82 5.67 5.37 5.67 12.38 l0 3.45 4.19 0 c3.20 0 4.19 0.15 4.19 0.64 0 0.99 -2.81 4.78 -4.88 6.61 l-1.77 1.58 -15.83 0.05 -15.78 0 -2.51 -1.23z"/>
  <path d="M445.13 173.70 c-2.12 -1.92 -4.83 -5.77 -4.83 -6.90 0 -0.44 1.23 -0.64 4.34 -0.74 l4.29 -0.15 0.25 -4.93 c0.35 -6.56 1.48 -8.63 5.57 -10.35 2.56 -1.04 5.82 -0.94 10.90 0.49 2.42 0.64 6.16 1.43 8.38 1.73 8.73 1.23 13.21 5.23 13.21 11.83 0 4.73 -3.20 9.17 -7.49 10.35 -0.94 0.30 -8.68 0.49 -17.11 0.49 l-15.43 0 -2.07 -1.82z"/>
      </g>
    </mask>
  </defs>
  <rect width="568" height="442" fill="white" mask="url(#h)"/>
</svg>